<svg xmlns="http://www.w3.org/2000/svg" width="32" height="40">
    <path fill="#B2B2B2" fill-rule="evenodd" d="M32 24c0 8.837-7.163 16-16 16S0 32.837 0 24C0 16.19 5.599 9.696 13 8.291V6h-2a1 1 0 0 1-1-1V1a1 1 0 0 1 1-1h10a1 1 0 0 1 1 1v4a1 1 0 0 1-1 1h-2v2.291C26.401 9.696 32 16.19 32 24zM20 4V2h-1a1 1 0 0 1-2 0h-2a1 1 0 0 1-2 0h-1v2h8zm-5 2v2.05c.332-.02.662-.05 1-.05.338 0 .668.03 1 .05V6h-2zm1 4C8.268 10 2 16.268 2 24s6.268 14 14 14 14-6.268 14-14-6.268-14-14-14zm8 15h-5.184A2.99 2.99 0 0 1 16 27c-.459 0-.889-.111-1.278-.295l-3.006 3.006-2 2a1.01 1.01 0 0 1-1.427-1.427l4.995-4.995.011-.011A2.976 2.976 0 0 1 13 24a2.99 2.99 0 0 1 2-2.816V14a1 1 0 0 1 2 0v7.184A2.987 2.987 0 0 1 18.816 23H24a1 1 0 0 1 0 2zm-8-2a1 1 0 1 0 0 2 1 1 0 0 0 0-2z"/>
</svg>
