<svg xmlns="http://www.w3.org/2000/svg" width="40" height="40">
    <path fill="#61DB98" fill-rule="evenodd" d="M20 40C8.954 40 0 31.046 0 20S8.954 0 20 0s20 8.954 20 20-8.954 20-20 20zm0-38C10.059 2 2 10.059 2 20s8.059 18 18 18 18-8.059 18-18S29.941 2 20 2zm3.74 18.707c-.024.029-.035.065-.062.093l-5.911 5.911a1.045 1.045 0 0 1-1.478 0c-.055-.056-.085-.126-.125-.19l-.806-.806-2.134-2.134-.939-.939-1-1a.959.959 0 1 1 1.357-1.357l3.721 3.72.577.577 4.288-4.287c.023-.03.034-.066.061-.093l5.911-5.911a1.045 1.045 0 0 1 1.478 1.477l-4.938 4.939z"/>
</svg>
